<mxfile host="65bd71144e" modified="2021-02-08T02:48:54.970Z" agent="5.0 (Macintosh; Intel Mac OS X 10_15_7) AppleWebKit/537.36 (KHTML, like Gecko) Code/1.52.1 Chrome/83.0.4103.122 Electron/9.3.5 Safari/537.36" version="13.10.0" etag="nJ76QO7LEy0NoI2DemPF" type="embed">
    <diagram id="sYyyzxMc8L0BJnTRZTQS" name="ページ1">
        <mxGraphModel dx="1126" dy="815" grid="0" gridSize="10" guides="1" tooltips="1" connect="1" arrows="1" fold="1" page="1" pageScale="1" pageWidth="827" pageHeight="1169" background="#ffffff" math="0" shadow="1">
            <root>
                <mxCell id="0"/>
                <mxCell id="1" parent="0"/>
                <mxCell id="21" style="edgeStyle=orthogonalEdgeStyle;rounded=0;orthogonalLoop=1;jettySize=auto;html=1;strokeColor=#000000;" edge="1" parent="1" target="11">
                    <mxGeometry relative="1" as="geometry">
                        <mxPoint x="140" y="182" as="sourcePoint"/>
                    </mxGeometry>
                </mxCell>
                <mxCell id="5" value="Client" style="verticalLabelPosition=bottom;html=1;verticalAlign=top;strokeWidth=1;align=center;outlineConnect=0;dashed=0;outlineConnect=0;shape=mxgraph.aws3d.client;aspect=fixed;strokeColor=none;fillColor=#777777;fontColor=#030303;" vertex="1" parent="1">
                    <mxGeometry x="110" y="40" width="60" height="104" as="geometry"/>
                </mxCell>
                <mxCell id="10" value="AWS Cloud" style="outlineConnect=0;gradientColor=none;html=1;whiteSpace=wrap;fontSize=12;fontStyle=0;shape=mxgraph.aws4.group;grIcon=mxgraph.aws4.group_aws_cloud;strokeColor=#AAB7B8;verticalAlign=top;align=left;spacingLeft=30;dashed=0;fontColor=#000000;fillColor=none;" vertex="1" parent="1">
                    <mxGeometry x="19" y="200" width="790" height="640" as="geometry"/>
                </mxCell>
                <mxCell id="22" style="edgeStyle=orthogonalEdgeStyle;rounded=0;orthogonalLoop=1;jettySize=auto;html=1;strokeColor=#0A0A0A;" edge="1" parent="1" source="11" target="19">
                    <mxGeometry relative="1" as="geometry"/>
                </mxCell>
                <mxCell id="11" value="" style="outlineConnect=0;fontColor=#232F3E;gradientColor=#945DF2;gradientDirection=north;fillColor=#5A30B5;strokeColor=#ffffff;dashed=0;verticalLabelPosition=bottom;verticalAlign=top;align=center;html=1;fontSize=12;fontStyle=0;aspect=fixed;shape=mxgraph.aws4.resourceIcon;resIcon=mxgraph.aws4.route_53;" vertex="1" parent="1">
                    <mxGeometry x="80" y="420" width="120" height="120" as="geometry"/>
                </mxCell>
                <mxCell id="12" value="VPC" style="points=[[0,0],[0.25,0],[0.5,0],[0.75,0],[1,0],[1,0.25],[1,0.5],[1,0.75],[1,1],[0.75,1],[0.5,1],[0.25,1],[0,1],[0,0.75],[0,0.5],[0,0.25]];outlineConnect=0;gradientColor=none;html=1;whiteSpace=wrap;fontSize=12;fontStyle=0;shape=mxgraph.aws4.group;grIcon=mxgraph.aws4.group_vpc;strokeColor=#248814;verticalAlign=top;align=left;spacingLeft=30;dashed=0;labelBackgroundColor=none;fontColor=#0C0D0D;fillColor=#B5E6C4;" vertex="1" parent="1">
                    <mxGeometry x="260" y="320" width="520" height="320" as="geometry"/>
                </mxCell>
                <mxCell id="25" style="edgeStyle=orthogonalEdgeStyle;rounded=0;orthogonalLoop=1;jettySize=auto;html=1;entryX=0.5;entryY=0;entryDx=0;entryDy=0;entryPerimeter=0;strokeColor=#0F0F0F;" edge="1" parent="1" source="14" target="15">
                    <mxGeometry relative="1" as="geometry"/>
                </mxCell>
                <mxCell id="13" value="EC2 instance contents" style="points=[[0,0],[0.25,0],[0.5,0],[0.75,0],[1,0],[1,0.25],[1,0.5],[1,0.75],[1,1],[0.75,1],[0.5,1],[0.25,1],[0,1],[0,0.75],[0,0.5],[0,0.25]];outlineConnect=0;gradientColor=none;html=1;whiteSpace=wrap;fontSize=12;fontStyle=0;shape=mxgraph.aws4.group;grIcon=mxgraph.aws4.group_ec2_instance_contents;strokeColor=#D86613;verticalAlign=top;align=left;spacingLeft=30;fontColor=#D86613;dashed=0;fillColor=#E8C9A0;" vertex="1" parent="1">
                    <mxGeometry x="360" y="360" width="320" height="240" as="geometry"/>
                </mxCell>
                <mxCell id="14" value="Rails Application" style="outlineConnect=0;dashed=0;verticalLabelPosition=bottom;verticalAlign=top;align=center;html=1;shape=mxgraph.aws3.android;fillColor=#AE1F23;gradientColor=none;fontColor=#0F0F0F;" vertex="1" parent="1">
                    <mxGeometry x="460" y="400" width="120" height="140" as="geometry"/>
                </mxCell>
                <mxCell id="15" value="RDS" style="outlineConnect=0;dashed=0;verticalLabelPosition=bottom;verticalAlign=top;align=center;html=1;shape=mxgraph.aws3.rds;fillColor=#2E73B8;gradientColor=none;fontColor=#000000;" vertex="1" parent="1">
                    <mxGeometry x="462" y="660" width="116" height="120" as="geometry"/>
                </mxCell>
                <mxCell id="17" value="" style="aspect=fixed;html=1;points=[];align=center;image;fontSize=12;image=img/lib/mscae/Docker.svg;" vertex="1" parent="1">
                    <mxGeometry x="620" y="550" width="50" height="41" as="geometry"/>
                </mxCell>
                <mxCell id="23" value="" style="edgeStyle=orthogonalEdgeStyle;rounded=0;orthogonalLoop=1;jettySize=auto;html=1;strokeColor=#080808;" edge="1" parent="1" source="19" target="13">
                    <mxGeometry relative="1" as="geometry"/>
                </mxCell>
                <mxCell id="19" value="Internet Gateway" style="outlineConnect=0;gradientColor=none;fillColor=#5A30B5;strokeColor=none;dashed=0;verticalLabelPosition=bottom;verticalAlign=top;align=center;html=1;fontSize=12;fontStyle=0;aspect=fixed;pointerEvents=1;shape=mxgraph.aws4.internet_gateway;fontColor=#0A0505;" vertex="1" parent="1">
                    <mxGeometry x="240" y="441" width="78" height="78" as="geometry"/>
                </mxCell>
            </root>
        </mxGraphModel>
    </diagram>
</mxfile>